<svg width="758" height="758" viewBox="0 0 758 758" fill="none" xmlns="http://www.w3.org/2000/svg">
    <g id="etikomlogosvg">
        <g id="kirmizi2">
            <path fill-rule="evenodd" clip-rule="evenodd" d="M225.242 724.424C140.133 686.5 71.6251 618.043 33.6385 532.968L119.989 494.548C148.486 558.323 199.853 609.64 263.662 638.073L225.242 724.424Z" fill="#BF2604" stroke="black" stroke-width="1.88933" stroke-miterlimit="22.926"/>
        </g>
        <g id="kirmizi1">
            <path fill-rule="evenodd" clip-rule="evenodd" d="M520.653 624.511C446.556 667.291 355.538 674.273 275.883 643.179L241.537 731.23C347.744 772.689 469.101 763.38 567.897 706.34L520.653 624.511Z" fill="#BF2604" stroke="black" stroke-width="1.88933" stroke-miterlimit="22.926"/>
        </g>
        <g id="sari1">
            <path fill-rule="evenodd" clip-rule="evenodd" d="M26.8172 516.672C4.85058 460.524 -3.2014 399.65 2.98792 339.726L96.9637 349.627C92.3344 394.571 98.3837 440.219 114.87 482.326L26.8172 516.672Z" fill="#F29829" stroke="black" stroke-width="1.88933" stroke-miterlimit="22.926"/>
        </g>
        <g id="sari2">
            <path fill-rule="evenodd" clip-rule="evenodd" d="M73.0291 156.993C38.2558 204.818 14.4239 261.113 5.21324 322.199L98.629 336.479C105.525 290.658 123.389 248.432 149.462 212.554L73.0291 156.993Z" fill="#F29829" stroke="black" stroke-width="1.88933" stroke-miterlimit="22.926"/>
        </g>
        <g id="yesil2">
            <path d="M156.644 73.3107C177.889 57.8374 200.809 44.5241 225.079 33.6961L263.499 120.045C245.307 128.165 228.129 138.145 212.203 149.745L156.644 73.3107Z" fill="#4A8C86" stroke="black" stroke-width="1.88933" stroke-miterlimit="22.926"/>
        </g>
        <g id="yesil3">
            <path fill-rule="evenodd" clip-rule="evenodd" d="M321.85 5.3522L336.13 98.768C315.155 101.944 294.935 107.419 275.735 114.927L241.389 26.8748C266.97 16.8761 293.909 9.5842 321.85 5.3522Z" fill="#4A8C86" stroke="black" stroke-width="1.88933" stroke-miterlimit="22.926"/>
        </g>
        <g id="yesil1">
            <path d="M83.7504 142.947C101.149 121.223 120.894 101.46 142.604 84.0467L201.671 157.8C193.525 164.335 170.558 185.706 157.505 202.013L83.7504 142.947Z" fill="#4A8C86" stroke="black" stroke-width="1.88933" stroke-miterlimit="22.926"/>
        </g>
        <g id="mavi1">
            <path d="M339.383 3.11479C349.575 2.05479 359.888 1.40147 370.303 1.16681L372.444 95.6319C364.643 95.8066 356.919 96.2973 349.284 97.0906L339.383 3.11479Z" fill="#3D79F2" stroke="black" stroke-width="1.88933" stroke-miterlimit="22.926"/>
        </g>
        <g id="mavi2">
            <path fill-rule="evenodd" clip-rule="evenodd" d="M418.456 3.14019L408.556 97.1093C401.002 96.3173 393.384 95.8239 385.718 95.6413L387.99 1.18015C398.218 1.42415 408.38 2.08286 418.456 3.14019Z" fill="#3D79F2" stroke="black" stroke-width="1.88933" stroke-miterlimit="22.926"/>
        </g>
        <g id="mavi3">
            <path fill-rule="evenodd" clip-rule="evenodd" d="M435.987 5.39751C447.659 7.17883 459.196 9.50014 470.567 12.3428L447.713 104.027C439.163 101.888 430.487 100.141 421.708 98.8026L435.987 5.39751Z" fill="#3D79F2" stroke="black" stroke-width="1.88933" stroke-miterlimit="22.926"/>
        </g>
        <g id="mavi4">
            <path fill-rule="evenodd" clip-rule="evenodd" d="M516.419 26.9641C506.973 23.2748 497.365 19.9588 487.619 17.0308L460.508 107.549C467.809 109.744 475.007 112.229 482.081 114.995L516.419 26.9641Z" fill="#3D79F2" stroke="black" stroke-width="1.88933" stroke-miterlimit="22.926"/>
        </g>
        <g id="buz1">
            <path fill-rule="evenodd" clip-rule="evenodd" d="M532.727 33.7801C536.853 35.6174 540.943 37.5285 544.996 39.5134L503.5 124.402C500.465 122.916 497.404 121.485 494.316 120.109L532.727 33.7801Z" fill="#85D3F2" stroke="black" stroke-width="1.88933" stroke-miterlimit="22.926"/>
        </g>
        <g id="buz2">
            <path fill-rule="evenodd" clip-rule="evenodd" d="M560.705 47.6601C564.524 49.7543 568.306 51.9143 572.051 54.14L523.771 135.364C520.969 133.697 518.139 132.08 515.28 130.512L560.705 47.6601Z" fill="#85D3F2" stroke="black" stroke-width="1.88933" stroke-miterlimit="22.926"/>
        </g>
        <g id="buz3">
            <path d="M598.193 71.1774C594.517 68.5596 590.795 66.0084 587.029 63.524L535.007 142.404C537.836 144.27 540.632 146.186 543.393 148.153L598.193 71.1774Z" fill="#85D3F2" stroke="black" stroke-width="1.88933" stroke-miterlimit="22.926"/>
        </g>
        <g id="buz4">
            <path fill-rule="evenodd" clip-rule="evenodd" d="M622.496 90.0186C619.167 87.2133 615.791 84.4675 612.369 81.7813L554.02 156.104C556.648 158.167 559.241 160.278 561.799 162.437L622.496 90.0186Z" fill="#85D3F2" stroke="black" stroke-width="1.88933" stroke-miterlimit="22.926"/>
        </g>
        <g id="buz5">
            <path fill-rule="evenodd" clip-rule="evenodd" d="M635.978 101.94C639.175 104.904 642.321 107.926 645.418 111.005L578.791 178.006C576.476 175.706 574.125 173.448 571.737 171.233L635.978 101.94Z" fill="#85D3F2" stroke="black" stroke-width="1.88933" stroke-miterlimit="22.926"/>
        </g>
        <g id="buz6">
            <path fill-rule="evenodd" clip-rule="evenodd" d="M666.966 134.312C663.92 130.726 660.813 127.203 657.645 123.744L587.992 187.594C590.362 190.185 592.687 192.821 594.966 195.504L666.966 134.312Z" fill="#85D3F2" stroke="black" stroke-width="1.88933" stroke-miterlimit="22.926"/>
        </g>
        <g id="buz7">
            <path fill-rule="evenodd" clip-rule="evenodd" d="M678.093 148.05C680.752 151.494 683.354 154.989 685.9 158.534L609.158 213.661C607.253 211.008 605.306 208.393 603.318 205.817L678.093 148.05Z" fill="#85D3F2" stroke="black" stroke-width="1.88933" stroke-miterlimit="22.926"/>
        </g>
        <g id="buz8">
            <path fill-rule="evenodd" clip-rule="evenodd" d="M616.654 224.634C618.492 227.466 620.298 230.329 622.041 233.22L703.033 184.601C700.707 180.724 698.317 176.897 695.865 173.121L616.654 224.634Z" fill="#85D3F2" stroke="black" stroke-width="1.88933" stroke-miterlimit="22.926"/>
        </g>
        <g id="altpim">
            <path fill-rule="evenodd" clip-rule="evenodd" d="M354.042 419.192L425.719 372.506C431.247 412.599 387.423 439.911 354.042 419.194M422.423 379.151L361.448 418.866C369.022 422.228 376.964 423.168 384.515 422.127C390.96 421.239 397.139 418.9 402.576 415.388C408.004 411.885 412.674 407.225 416.11 401.686C420.11 395.243 422.458 387.587 422.423 379.151Z" fill="black"/>
        </g>
        <g id="ustpim">
            <path fill-rule="evenodd" clip-rule="evenodd" d="M398.859 340.361C392.76 337.183 386.282 335.653 379.888 335.554C372.79 335.446 365.771 337.102 359.474 340.237C353.18 343.369 347.634 347.959 343.471 353.719C339.731 358.895 337.088 365.027 335.998 371.909L398.859 340.361ZM406.563 340.705C376.1 318.694 332.274 339.753 331.683 378.285L406.563 340.705Z" fill="black"/>
        </g>
        <g id="cubuk">
            <path fill-rule="evenodd" clip-rule="evenodd" d="M266.367 411.064L685.405 201.153C685.764 200.973 686.2 201.104 686.4 201.452C686.6 201.8 686.493 202.242 686.157 202.462L293.673 458.512L226.902 497.063C226.597 497.239 198.63 450.17 199.593 449.614L266.367 411.064Z" fill="#280340" stroke="black" stroke-width="1.88933" stroke-miterlimit="22.926"/>
        </g>
    </g>
    <!-- html not satırı -->
    <style>
        #cubuk, #ustpim, #altpim {
            animation-name: dönme;
            animation-delay: 0.5s;
            animation-iteration-count: forwards;
            animation-duration: 3.5s;
            animation-timing-function: ease-in-out;
            transform-origin: 379px 379px;
            transform-box: view-box;
        }
        @keyframes dönme {
            from   { transform: rotate(0deg); }
            to  { transform: rotate(360deg); }
        }

        #kirmizi1 {
            animation: kaybol1 3.75s ease-out forwards;
            animation-delay: 0.25s; /* sayfa açıldıktan sonra saniye bekle */
        }
        @keyframes kaybol1 {
            0%   { opacity: 1; }
            30%   { opacity: 0; }
            40%   { opacity: 0; }
            45%   { opacity: 1; }
            100%   { opacity: 1; }
        }

        #kirmizi2 {
            animation: kaybol2 3.75s ease-out forwards;
            animation-delay: 0.25s; /* sayfa açıldıktan sonra saniye bekle */
        }
        @keyframes kaybol2 {
            0%   { opacity: 1; }
            30%   { opacity: 0; }
            48%   { opacity: 0; }
            53%   { opacity: 1; }
            100%   { opacity: 1; }
        }

        #sari1 {
            animation: kaybol3 3.75s ease-out forwards;
            animation-delay: 0.25s; /* sayfa açıldıktan sonra saniye bekle */
        }
        @keyframes kaybol3 {
            0%   { opacity: 1; }
            30%   { opacity: 0; }
            55%   { opacity: 0; }
            59%   { opacity: 1; }
            100%   { opacity: 1; }
        }

        #sari2 {
            animation: kaybol4 3.75s ease-out forwards;
            animation-delay: 0.25s; /* sayfa açıldıktan sonra saniye bekle */
        }
        @keyframes kaybol4 {
            0%   { opacity: 1; }
            30%   { opacity: 0; }
            60%   { opacity: 0; }
            64%   { opacity: 1; }
            100%   { opacity: 1; }
        }

        #yesil1 {
            animation: kaybol5 3.75s ease-out forwards;
            animation-delay: 0.25s; /* sayfa açıldıktan sonra saniye bekle */
        }
        @keyframes kaybol5 {
            0%   { opacity: 1; }
            30%   { opacity: 0; }
            63%   { opacity: 0; }
            66%   { opacity: 1; }
            100%   { opacity: 1; }
        }

        #yesil2 {
            animation: kaybol6 3.75s ease-out forwards;
            animation-delay: 0.25s; /* sayfa açıldıktan sonra saniye bekle */
        }
        @keyframes kaybol6 {
            0%   { opacity: 1; }
            30%   { opacity: 0; }
            66%   { opacity: 0; }
            69%   { opacity: 1; }
            100%   { opacity: 1; }
        }

        #yesil3 {
            animation: kaybol7 3.75s ease-out forwards;
            animation-delay: 0.25s; /* sayfa açıldıktan sonra saniye bekle */
        }
        @keyframes kaybol7 {
            0%   { opacity: 1; }
            30%   { opacity: 0; }
            70%   { opacity: 0; }
            72%   { opacity: 1; }
            100%   { opacity: 1; }
        }

        #mavi1 {
            animation: kaybol8 3.75s ease-out forwards;
            animation-delay: 0.25s; /* sayfa açıldıktan sonra saniye bekle */
        }
        @keyframes kaybol8 {
            0%   { opacity: 1; }
            30%   { opacity: 0; }
            72%   { opacity: 0; }
            74%   { opacity: 1; }
            100%   { opacity: 1; }
        }

        #mavi2 {
            animation: kaybol9 3.75s ease-out forwards;
            animation-delay: 0.25s; /* sayfa açıldıktan sonra saniye bekle */
        }
        @keyframes kaybol9 {
            0%   { opacity: 1; }
            30%   { opacity: 0; }
            73%   { opacity: 0; }
            75%   { opacity: 1; }
            100%   { opacity: 1; }
        }

        #mavi3 {
            animation: kaybol10 3.75s ease-out forwards;
            animation-delay: 0.25s; /* sayfa açıldıktan sonra saniye bekle */
        }
        @keyframes kaybol10 {
            0%   { opacity: 1; }
            30%   { opacity: 0; }
            75%   { opacity: 0; }
            77%   { opacity: 1; }
            100%   { opacity: 1; }
        }

        #mavi4 {
            animation: kaybol11 3.75s ease-out forwards;
            animation-delay: 0.25s; /* sayfa açıldıktan sonra saniye bekle */
        }
        @keyframes kaybol11 {
            0%   { opacity: 1; }
            30%   { opacity: 0; }
            76%   { opacity: 0; }
            79%   { opacity: 1; }
            100%   { opacity: 1; }
        }

        #buz1 {
            animation: kaybol12 3.75s ease-out forwards;
            animation-delay: 0.25s; /* sayfa açıldıktan sonra saniye bekle */
        }
        @keyframes kaybol12 {
            0%   { opacity: 1; }
            30%   { opacity: 0; }
            78%   { opacity: 0; }
            80%   { opacity: 1; }
            100%   { opacity: 1; }
        }

        #buz2 {
            animation: kaybol13 3.75s ease-out forwards;
            animation-delay: 0.25s; /* sayfa açıldıktan sonra saniye bekle */
        }
        @keyframes kaybol13 {
            0%   { opacity: 1; }
            30%   { opacity: 0; }
            80%   { opacity: 0; }
            81%   { opacity: 1; }
            100%   { opacity: 1; }
        }

        #buz3 {
            animation: kaybol14 3.75s ease-out forwards;
            animation-delay: 0.25s; /* sayfa açıldıktan sonra saniye bekle */
        }
        @keyframes kaybol14 {
            0%   { opacity: 1; }
            30%   { opacity: 0; }
            81%   { opacity: 0; }
            82%   { opacity: 1; }
            100%   { opacity: 1; }
        }

        #buz4 {
            animation: kaybol15 3.75s ease-out forwards;
            animation-delay: 0.25s; /* sayfa açıldıktan sonra saniye bekle */
        }
        @keyframes kaybol15 {
            0%   { opacity: 1; }
            30%   { opacity: 0; }
            83%   { opacity: 0; }
            84%   { opacity: 1; }
            100%   { opacity: 1; }
        }

        #buz5 {
            animation: kaybol16 3.75s ease-out forwards;
            animation-delay: 0.25s; /* sayfa açıldıktan sonra saniye bekle */
        }
        @keyframes kaybol16 {
            0%   { opacity: 1; }
            30%   { opacity: 0; }
            85%   { opacity: 0; }
            86%   { opacity: 1; }
            100%   { opacity: 1; }
        }

        #buz6 {
            animation: kaybol17 3.75s ease-out forwards;
            animation-delay: 0.25s; /* sayfa açıldıktan sonra saniye bekle */
        }
        @keyframes kaybol17 {
            0%   { opacity: 1; }
            30%   { opacity: 0; }
            87%   { opacity: 0; }
            88%   { opacity: 1; }
            100%   { opacity: 1; }
        }

        #buz7 {
            animation: kaybol18 3.75s ease-out forwards;
            animation-delay: 0.25s; /* sayfa açıldıktan sonra saniye bekle */
        }
        @keyframes kaybol18 {
            0%   { opacity: 1; }
            30%   { opacity: 0; }
            89%   { opacity: 0; }
            90%   { opacity: 1; }
            100%   { opacity: 1; }
        }

        #buz8 {
            animation: kaybol19 3.75s ease-out forwards;
            animation-delay: 0.25s; /* sayfa açıldıktan sonra saniye bekle */
        }
        @keyframes kaybol19 {
            0%   { opacity: 1; }
            30%   { opacity: 0; }
            91%   { opacity: 0; }
            92%   { opacity: 1; }
            100%   { opacity: 1; }
        }
    </style>
</svg>