<?xml version="1.0" encoding="UTF-8"?>
<!DOCTYPE svg PUBLIC "-//W3C//DTD SVG 1.1//EN" "http://www.w3.org/Graphics/SVG/1.1/DTD/svg11.dtd">
<!-- Creator: CorelDRAW 2018 (64-Bit) -->
<svg xmlns="http://www.w3.org/2000/svg" xml:space="preserve" width="160mm" height="160mm" version="1.1" style="shape-rendering:geometricPrecision; text-rendering:geometricPrecision; image-rendering:optimizeQuality; fill-rule:evenodd; clip-rule:evenodd"
viewBox="0 0 16000 16000"
 xmlns:xlink="http://www.w3.org/1999/xlink">
 <defs>
  <style type="text/css">
   <![CDATA[
    .fil0 {fill:#4CB839}
    .fil1 {fill:#0A0A0A;fill-rule:nonzero}
   ]]>
  </style>
 </defs>
 <g id="Katman_x0020_1">
  <metadata id="CorelCorpID_0Corel-Layer"/>
  <path class="fil0" d="M8000 0c-4418.28,0 -8000,3581.72 -8000,8000 0,4418.28 3581.72,8000 8000,8000 4418.28,0 8000,-3581.72 8000,-8000 0,-4418.28 -3581.72,-8000 -8000,-8000z"/>
  <path class="fil1" d="M12550.83 9788.58c-176.39,589.14 -606.78,1135.94 -1291.17,1647.47 -797.27,603.25 -1668.63,903.11 -2614.08,903.11 -603.25,0 -1143,-67.02 -1608.67,-197.55 -539.75,-151.7 -1047.75,-409.22 -1531.05,-772.59 -194.03,239.89 -373.95,500.95 -536.22,786.7 -201.09,349.25 -303.39,606.78 -303.39,765.53 0,190.5 52.91,324.55 155.22,402.16 67.03,49.39 183.44,70.56 342.19,70.56 45.86,0 95.25,-7.06 144.64,-17.64 38.81,-14.11 81.14,-28.22 123.47,-42.33 28.23,-14.11 49.39,-14.11 70.56,0 49.39,28.22 59.97,81.14 31.75,165.8 -42.33,165.81 -123.47,317.5 -246.94,455.09 -165.81,179.91 -359.84,268.11 -578.56,268.11 -232.83,0 -426.86,-84.67 -578.56,-257.53 -151.69,-172.86 -225.77,-398.64 -225.77,-673.81 0,-218.72 77.61,-490.36 229.3,-807.86 42.34,-88.19 342.2,-578.55 899.59,-1467.55 -511.53,-525.64 -906.64,-1093.61 -1181.81,-1707.45 -303.39,-684.39 -455.08,-1418.16 -455.08,-2204.86 0,-1449.92 469.19,-2698.75 1411.11,-3750.03 941.91,-1051.28 2113.14,-1576.91 3513.67,-1576.91 557.38,0 1128.88,134.05 1714.5,402.16 324.55,158.75 649.11,313.97 973.66,465.67 59.97,28.22 151.7,49.39 268.11,63.5 116.42,14.11 236.36,21.17 352.78,21.17l310.45 -21.17c74.08,0 112.88,28.22 112.88,91.72 0,49.39 -24.69,84.67 -74.08,112.89 -109.36,70.56 -229.3,162.28 -359.83,278.69 -179.92,151.7 -335.14,306.92 -465.67,465.67 -670.28,744.36 -1446.39,1718.03 -2328.33,2924.53 -881.95,1206.5 -1714.5,2416.53 -2490.61,3630.08 405.69,285.75 818.44,508 1238.25,666.75 493.89,183.45 1012.47,275.17 1548.69,275.17 744.36,0 1358.2,-141.11 1837.97,-423.33 352.78,-208.14 744.36,-575.03 1178.28,-1107.73 42.33,-63.5 88.2,-130.52 144.64,-201.08 56.44,-74.08 116.42,-102.3 186.97,-88.19 88.2,21.16 134.06,84.66 134.06,197.55 0,81.14 -17.64,169.34 -52.92,257.53zm-2825.75 -6092.47c0,-409.23 -218.72,-723.2 -659.69,-952.5 -373.95,-194.03 -821.98,-289.28 -1344.09,-289.28 -980.72,0 -1785.05,416.28 -2420.05,1252.36 -592.67,783.17 -889,1718.03 -889,2801.06 0,642.05 155.22,1284.11 465.66,1922.64 261.06,546.8 589.14,1008.94 980.73,1386.41 469.19,-694.97 832.55,-1238.25 1097.13,-1622.78 419.81,-620.88 776.12,-1143 1072.45,-1562.8 381,-536.22 758.47,-1075.97 1139.47,-1612.2 370.42,-578.55 557.39,-1019.52 557.39,-1322.91z"/>
 </g>
</svg>
